<svg xmlns="http://www.w3.org/2000/svg" width="1400" height="620" viewBox="0 0 1400 620" role="img" aria-labelledby="title description">
<title id="title">Human-in-the-Loop Agent Control Plane architecture</title><desc id="description">Architecture flow and engineering signals.</desc><defs><linearGradient id="bg" x1="0" y1="0" x2="1" y2="1"><stop stop-color="#07111f"/><stop offset="1" stop-color="#102a43"/></linearGradient></defs><rect width="1400" height="620" rx="28" fill="url(#bg)"/><circle cx="1300" cy="60" r="220" fill="#8b5cf6" opacity=".08"/><g font-family="Inter,ui-sans-serif,system-ui,sans-serif"><text x="60" y="65" fill="#f8fafc" font-size="30" font-weight="750">System architecture</text><text x="60" y="98" fill="#9fb3c8" font-size="16">The main runtime path and the engineering decisions visible in the repository.</text><text x="60" y="154" fill="#c4b5fd" font-size="13" font-weight="700" letter-spacing="1.5">RUNTIME FLOW</text><rect x="60" y="183" width="220" height="105" rx="17" fill="#142d49" stroke="#8b5cf6" stroke-width="1.4"/><text x="170.0" y="230" text-anchor="middle" fill="#f8fafc" font-size="16" font-weight="700">USER QUERY</text><text x="170.0" y="258" text-anchor="middle" fill="#9fb3c8" font-size="12">stage 1</text><path d="M287 235h18" stroke="#5f87a7" stroke-width="2.4"/><path d="m299 228 9 7-9 7" fill="none" stroke="#5f87a7" stroke-width="2.4"/><rect x="315" y="183" width="220" height="105" rx="17" fill="#142d49" stroke="#8b5cf6" stroke-width="1.4"/><text x="425.0" y="230" text-anchor="middle" fill="#f8fafc" font-size="16" font-weight="700">PERCEIVE</text><text x="425.0" y="258" text-anchor="middle" fill="#9fb3c8" font-size="12">stage 2</text><path d="M542 235h18" stroke="#5f87a7" stroke-width="2.4"/><path d="m554 228 9 7-9 7" fill="none" stroke="#5f87a7" stroke-width="2.4"/><rect x="570" y="183" width="220" height="105" rx="17" fill="#142d49" stroke="#8b5cf6" stroke-width="1.4"/><text x="680.0" y="230" text-anchor="middle" fill="#f8fafc" font-size="16" font-weight="700">ROUTE TOOL</text><text x="680.0" y="258" text-anchor="middle" fill="#9fb3c8" font-size="12">stage 3</text><path d="M797 235h18" stroke="#5f87a7" stroke-width="2.4"/><path d="m809 228 9 7-9 7" fill="none" stroke="#5f87a7" stroke-width="2.4"/><rect x="825" y="183" width="220" height="105" rx="17" fill="#142d49" stroke="#8b5cf6" stroke-width="1.4"/><text x="935.0" y="230" text-anchor="middle" fill="#f8fafc" font-size="16" font-weight="700">APPROVAL GATE</text><text x="935.0" y="258" text-anchor="middle" fill="#9fb3c8" font-size="12">stage 4</text><path d="M1052 235h18" stroke="#5f87a7" stroke-width="2.4"/><path d="m1064 228 9 7-9 7" fill="none" stroke="#5f87a7" stroke-width="2.4"/><rect x="1080" y="183" width="220" height="105" rx="17" fill="#142d49" stroke="#8b5cf6" stroke-width="1.4"/><text x="1190.0" y="230" text-anchor="middle" fill="#f8fafc" font-size="16" font-weight="700">EXECUTE + TRACE</text><text x="1190.0" y="258" text-anchor="middle" fill="#9fb3c8" font-size="12">stage 5</text><path d="M170 325h1060" stroke="#315775" stroke-width="1" stroke-dasharray="5 7"/><text x="60" y="404" fill="#c4b5fd" font-size="13" font-weight="700" letter-spacing="1.5">ENGINEERING SIGNALS</text><rect x="60" y="440" width="290" height="84" rx="15" fill="#0d2034" stroke="#315775"/><circle cx="90" cy="482" r="9" fill="#8b5cf6"/><text x="112" y="488" fill="#dbeafe" font-size="15" font-weight="650">LangGraph state machine</text><rect x="375" y="440" width="290" height="84" rx="15" fill="#0d2034" stroke="#315775"/><circle cx="405" cy="482" r="9" fill="#8b5cf6"/><text x="427" y="488" fill="#dbeafe" font-size="15" font-weight="650">editable email drafts</text><rect x="690" y="440" width="290" height="84" rx="15" fill="#0d2034" stroke="#315775"/><circle cx="720" cy="482" r="9" fill="#8b5cf6"/><text x="742" y="488" fill="#dbeafe" font-size="15" font-weight="650">constrained Python tool</text><rect x="1005" y="440" width="290" height="84" rx="15" fill="#0d2034" stroke="#315775"/><circle cx="1035" cy="482" r="9" fill="#8b5cf6"/><text x="1057" y="488" fill="#dbeafe" font-size="15" font-weight="650">optional search + Gmail</text><text x="60" y="578" fill="#708ca5" font-family="ui-monospace,SFMono-Regular,Menlo,monospace" font-size="12">implementation-backed · developer-readable · portfolio-ready</text></g></svg>
